<svg xmlns="http://www.w3.org/2000/svg" xmlns:xlink="http://www.w3.org/1999/xlink" width="500" zoomAndPan="magnify" viewBox="0 0 375 374.999991" height="500" preserveAspectRatio="xMidYMid meet" version="1.2"><defs><clipPath id="8f7fdc5466"><path d="M 213 173 L 247 173 L 247 206 L 213 206 Z M 213 173 "/></clipPath><clipPath id="2edb355505"><path d="M 209.890625 176.671875 L 242.582031 169.394531 L 249.859375 202.082031 L 217.171875 209.363281 Z M 209.890625 176.671875 "/></clipPath><clipPath id="d5651094c5"><path d="M 209.890625 176.671875 L 242.582031 169.394531 L 249.859375 202.082031 L 217.171875 209.363281 Z M 209.890625 176.671875 "/></clipPath></defs><g id="9e291b8ff9"><rect x="0" width="375" y="0" height="374.999991" style="fill:#ffffff;fill-opacity:1;stroke:none;"/><rect x="0" width="375" y="0" height="374.999991" style="fill:#171717;fill-opacity:1;stroke:none;"/><g style="fill:#0d9353;fill-opacity:1;"><g transform="translate(150.052475, 274.984553)"><path style="stroke:none" d="M 52.984375 -35.15625 L 64.453125 -35.15625 C 74.304688 -35.15625 82.925781 -37.445312 90.3125 -42.03125 C 97.695312 -46.613281 103.46875 -52.8125 107.625 -60.625 C 111.789062 -68.4375 113.875 -77.097656 113.875 -86.609375 C 113.875 -96.296875 111.789062 -105 107.625 -112.71875 C 103.46875 -120.445312 97.695312 -126.5625 90.3125 -131.0625 C 82.925781 -135.5625 74.304688 -137.8125 64.453125 -137.8125 L 52.984375 -137.8125 Z M 15.28125 -173.234375 L 66.75 -173.234375 C 78.976562 -173.234375 90.3125 -171.023438 100.75 -166.609375 C 111.195312 -162.191406 120.328125 -156.078125 128.140625 -148.265625 C 135.953125 -140.453125 142.019531 -131.28125 146.34375 -120.75 C 150.675781 -110.21875 152.84375 -98.835938 152.84375 -86.609375 C 152.84375 -74.378906 150.675781 -63 146.34375 -52.46875 C 142.019531 -41.945312 135.992188 -32.78125 128.265625 -24.96875 C 120.535156 -17.15625 111.40625 -11.039062 100.875 -6.625 C 90.351562 -2.207031 78.976562 0 66.75 0 L 15.28125 0 Z M 15.28125 -173.234375 "/></g></g><g style="fill:#171717;fill-opacity:1;"><g transform="translate(52.298147, 276.306572)"><path style="stroke:none" d="M 57.597656 0 L 57.597656 -82.875 L 66.042969 -82.875 L 59.148438 -77.996094 L -14.277344 -181.84375 L 52.363281 -181.84375 L 92.332031 -117.953125 L 85.167969 -113.472656 L 78.007812 -117.953125 L 117.972656 -181.84375 L 184.613281 -181.84375 L 111.191406 -77.996094 L 104.292969 -82.875 L 112.742188 -82.875 L 112.742188 8.445312 L 57.597656 8.445312 Z M 74.492188 0 L 66.042969 0 L 66.042969 -8.445312 L 104.292969 -8.445312 L 104.292969 0 L 95.847656 0 L 95.847656 -85.558594 L 161.402344 -178.273438 L 168.296875 -173.398438 L 168.296875 -164.949219 L 122.652344 -164.949219 L 122.652344 -173.398438 L 129.816406 -168.917969 L 85.167969 -97.546875 L 40.523438 -168.917969 L 47.683594 -173.398438 L 47.683594 -164.949219 L 2.039062 -164.949219 L 2.039062 -173.398438 L 8.9375 -178.273438 L 74.492188 -85.558594 Z M 74.492188 0 "/></g></g><g style="fill:#ffffff;fill-opacity:1;"><g transform="translate(52.298147, 276.306572)"><path style="stroke:none" d="M 66.046875 0 L 66.046875 -82.875 L 2.046875 -173.40625 L 47.6875 -173.40625 L 85.171875 -113.46875 L 122.65625 -173.40625 L 168.296875 -173.40625 L 104.296875 -82.875 L 104.296875 0 Z M 66.046875 0 "/></g></g><g clip-rule="nonzero" clip-path="url(#8f7fdc5466)"><g clip-rule="nonzero" clip-path="url(#2edb355505)"><g clip-rule="nonzero" clip-path="url(#d5651094c5)"><path style=" stroke:none;fill-rule:nonzero;fill:#00bf63;fill-opacity:1;" d="M 246.132812 185.890625 C 233.585938 190.355469 232.335938 192.324219 233.617188 205.578125 C 233.625 205.65625 233.589844 205.703125 233.515625 205.722656 C 233.4375 205.738281 233.386719 205.710938 233.359375 205.636719 C 228.894531 193.089844 226.929688 191.839844 213.671875 193.121094 C 213.59375 193.128906 213.546875 193.09375 213.53125 193.015625 C 213.511719 192.941406 213.542969 192.890625 213.617188 192.863281 C 226.160156 188.398438 227.410156 186.429688 226.128906 173.175781 C 226.125 173.097656 226.15625 173.050781 226.234375 173.035156 C 226.3125 173.015625 226.363281 173.042969 226.386719 173.117188 C 230.855469 185.664062 232.820312 186.914062 246.074219 185.632812 C 246.15625 185.625 246.203125 185.660156 246.21875 185.738281 C 246.234375 185.8125 246.207031 185.867188 246.132812 185.890625 Z M 246.132812 185.890625 "/></g></g></g></g></svg>